<svg width="25" height="25" viewBox="0 0 25 25" fill="none" xmlns="http://www.w3.org/2000/svg">
    <path
        d="M22.8113 0.5H2.35977C1.38008 0.5 0.587891 1.27344 0.587891 2.22969V22.7656C0.587891 23.7219 1.38008 24.5 2.35977 24.5H22.8113C23.791 24.5 24.5879 23.7219 24.5879 22.7703V2.22969C24.5879 1.27344 23.791 0.5 22.8113 0.5ZM7.7082 20.9516H4.1457V9.49531H7.7082V20.9516ZM5.92695 7.93438C4.7832 7.93438 3.85977 7.01094 3.85977 5.87187C3.85977 4.73281 4.7832 3.80937 5.92695 3.80937C7.06602 3.80937 7.98945 4.73281 7.98945 5.87187C7.98945 7.00625 7.06602 7.93438 5.92695 7.93438ZM21.0395 20.9516H17.4816V15.3828C17.4816 14.0562 17.4582 12.3453 15.6301 12.3453C13.7785 12.3453 13.4973 13.7937 13.4973 15.2891V20.9516H9.94414V9.49531H13.3566V11.0609H13.4035C13.877 10.1609 15.0395 9.20938 16.7691 9.20938C20.3738 9.20938 21.0395 11.5813 21.0395 14.6656V20.9516Z"
        fill="#F8F8F8"/>
</svg>
