<svg width="25" height="25" viewBox="0 0 25 25" fill="none" xmlns="http://www.w3.org/2000/svg">
    <g clip-path="url(#clip0_1084_90)">
        <path
            d="M12.5879 2.66094C15.7941 2.66094 16.1738 2.675 17.4348 2.73125C18.6066 2.78281 19.2395 2.97969 19.6613 3.14375C20.2191 3.35938 20.6223 3.62188 21.0395 4.03906C21.4613 4.46094 21.7191 4.85938 21.9348 5.41719C22.0988 5.83906 22.2957 6.47656 22.3473 7.64375C22.4035 8.90937 22.4176 9.28906 22.4176 12.4906C22.4176 15.6969 22.4035 16.0766 22.3473 17.3375C22.2957 18.5094 22.0988 19.1422 21.9348 19.5641C21.7191 20.1219 21.4566 20.525 21.0395 20.9422C20.6176 21.3641 20.2191 21.6219 19.6613 21.8375C19.2395 22.0016 18.602 22.1984 17.4348 22.25C16.1691 22.3062 15.7895 22.3203 12.5879 22.3203C9.38164 22.3203 9.00195 22.3062 7.74102 22.25C6.56914 22.1984 5.93633 22.0016 5.51445 21.8375C4.95664 21.6219 4.55352 21.3594 4.13633 20.9422C3.71445 20.5203 3.45664 20.1219 3.24102 19.5641C3.07695 19.1422 2.88008 18.5047 2.82852 17.3375C2.77227 16.0719 2.7582 15.6922 2.7582 12.4906C2.7582 9.28438 2.77227 8.90469 2.82852 7.64375C2.88008 6.47187 3.07695 5.83906 3.24102 5.41719C3.45664 4.85938 3.71914 4.45625 4.13633 4.03906C4.5582 3.61719 4.95664 3.35938 5.51445 3.14375C5.93633 2.97969 6.57383 2.78281 7.74102 2.73125C9.00195 2.675 9.38164 2.66094 12.5879 2.66094ZM12.5879 0.5C9.33008 0.5 8.92227 0.514062 7.64258 0.570312C6.36758 0.626563 5.49102 0.832812 4.73164 1.12812C3.93945 1.4375 3.26914 1.84531 2.60352 2.51562C1.9332 3.18125 1.52539 3.85156 1.21602 4.63906C0.920703 5.40313 0.714453 6.275 0.658203 7.55C0.601953 8.83437 0.587891 9.24219 0.587891 12.5C0.587891 15.7578 0.601953 16.1656 0.658203 17.4453C0.714453 18.7203 0.920703 19.5969 1.21602 20.3563C1.52539 21.1484 1.9332 21.8188 2.60352 22.4844C3.26914 23.15 3.93945 23.5625 4.72695 23.8672C5.49102 24.1625 6.36289 24.3687 7.63789 24.425C8.91758 24.4812 9.32539 24.4953 12.5832 24.4953C15.841 24.4953 16.2488 24.4812 17.5285 24.425C18.8035 24.3687 19.6801 24.1625 20.4395 23.8672C21.227 23.5625 21.8973 23.15 22.5629 22.4844C23.2285 21.8188 23.641 21.1484 23.9457 20.3609C24.241 19.5969 24.4473 18.725 24.5035 17.45C24.5598 16.1703 24.5738 15.7625 24.5738 12.5047C24.5738 9.24688 24.5598 8.83906 24.5035 7.55938C24.4473 6.28438 24.241 5.40781 23.9457 4.64844C23.6504 3.85156 23.2426 3.18125 22.5723 2.51562C21.9066 1.85 21.2363 1.4375 20.4488 1.13281C19.6848 0.8375 18.8129 0.63125 17.5379 0.575C16.2535 0.514063 15.8457 0.5 12.5879 0.5Z"
            fill="#F8F8F8"/>
        <path
            d="M12.5879 6.33594C9.18477 6.33594 6.42383 9.09688 6.42383 12.5C6.42383 15.9031 9.18477 18.6641 12.5879 18.6641C15.991 18.6641 18.752 15.9031 18.752 12.5C18.752 9.09688 15.991 6.33594 12.5879 6.33594ZM12.5879 16.4984C10.3801 16.4984 8.58945 14.7078 8.58945 12.5C8.58945 10.2922 10.3801 8.50156 12.5879 8.50156C14.7957 8.50156 16.5863 10.2922 16.5863 12.5C16.5863 14.7078 14.7957 16.4984 12.5879 16.4984Z"
            fill="#F8F8F8"/>
        <path
            d="M20.4348 6.09238C20.4348 6.88926 19.7879 7.53145 18.9957 7.53145C18.1988 7.53145 17.5566 6.88457 17.5566 6.09238C17.5566 5.29551 18.2035 4.65332 18.9957 4.65332C19.7879 4.65332 20.4348 5.3002 20.4348 6.09238Z"
            fill="#F8F8F8"/>
    </g>
    <defs>
        <clipPath id="clip0_1084_90">
            <rect width="24" height="24" fill="white" transform="translate(0.587891 0.5)"/>
        </clipPath>
    </defs>
</svg>
